<svg version="1.2" xmlns="http://www.w3.org/2000/svg" viewBox="0 0 1193 175" width="1193" height="175">
	<title>SideLogoFooterSVG-svg</title>
	<style>
		.s0 { fill: none } 
		.s1 { fill: #ffb30c } 
		.s2 { fill: #ffffff } 
		.s3 { fill: #ffffff;stroke: #ffffff;stroke-width: .4 } 
	</style>
	<g id="background-logo">
		<path class="s0" d="m-49-425h1280v1024h-1280z"/>
	</g>
	<g id="logo-logo">
		<g>
			<g>
				<path fill-rule="evenodd" class="s1" d="m56.4 99c0-5.7 3.2-10.7 8.2-13.2v-19.4h-19.6l-6.8 62.9 26.5-17.1c-4.9-2.4-8.3-7.4-8.3-13.2zm90.4-32.6h-3.3l-58.6 37.9c-2.2 5.5-7.5 9.4-13.7 9.4q-0.4 0-0.8 0l-32.8 21.2-0.9 8.7 110.1-71.2zm-60.9 32.1l40.4-26.2h-33.8l-2.6-5.9h-12.3v19.4c4.9 2.3 8.1 7.2 8.3 12.7zm96.1-8.1l-14.1 9.1c-0.2 7.9-6.7 14.2-14.7 14.2-1.9 0-3.8-0.4-5.5-1.1l-53.3 34.5h93.7z"/>
			</g>
			<g>
				<path fill-rule="evenodd" class="s2" d="m67.6 87.8v-42.5c0-24.6 20-44.6 44.6-44.6 24.6 0 44.6 20 44.6 44.6v42.5c4.7 1.5 8.1 6 8.1 11.2 0 6.4-5.2 11.7-11.7 11.7-6.4 0-11.6-5.3-11.6-11.7 0-5.3 3.4-9.7 8.2-11.2v-42.5c0-20.7-16.8-37.6-37.6-37.6-20.8 0-37.6 16.9-37.6 37.6v42.5c4.8 1.5 8.2 5.9 8.2 11.2 0 6.4-5.2 11.7-11.6 11.7-6.5 0-11.7-5.3-11.7-11.7 0-5.2 3.4-9.7 8.1-11.2zm156 73l-4.8 8.7c-1.8 3.4-5.4 5.5-9.2 5.5h-194.8c-3.8 0-7.4-2.1-9.2-5.5l-4.8-8.7c-1.4-2.7 0.5-6 3.6-6h23.4l9.8-91.4c0.2-2.7 2.5-4.7 5.2-4.7h21.8v4.7h-22.4l-9.2 86.7h158.4l-9.2-86.7h-22.4v-4.7h21.8c2.7 0 5 2 5.2 4.7l9.8 91.4h23.4c3.1 0 5 3.3 3.6 6zm-47.4 4.1c0-1.6-1.3-2.9-2.9-2.9h-122.2c-1.6 0-2.9 1.3-2.9 2.9 0 1.6 1.3 2.9 2.9 2.9h122.2c1.6 0 2.9-1.3 2.9-2.9zm-29.4-101.5h-14.3l-2.6 5.9h-35.4l-2.6-5.9h-14.3v-4.7h69.2z"/>
			</g>
		</g>
	</g>
	<g id="text-logo">
		<g>
			<g id="text-logo-path-0">
				<path fill-rule="evenodd" class="s3" d="m282.9 39.5q-1-2.4-1-2.9 0-0.4 0.1-0.5 0.5-0.5 6.5-0.6 11.7 0 18 4.9 6.3 4.9 6.3 13 0 4-1.3 7.4-1.3 3.3-3.4 5.6-2.2 2.3-4.8 4.1-2.7 1.8-5.6 2.8-5.8 1.9-10.6 1.9-2.2 0-2.5-0.4-0.3-0.3-0.3-9.9l0.1-22q-0.6-0.9-1.5-3.4zm8.8 2.5q-0.4 0.4-0.4 13.1 0 12.8 0.4 13.2 0.1 0.1 0.8 0.1 0.7 0 2.2-0.4 1.4-0.4 3.3-1.4 1.9-1.1 3.5-2.8 1.6-1.6 2.7-4.3 1.2-2.8 1.2-5.9 0-3.1-1.2-5.3-1.1-2.2-2.5-3.4-1.5-1.1-3.5-1.8-3-1.1-5.8-1.1-0.7 0-0.7 0zm33.9 9.7q0 0 2.9-0.1l0.1-6q0-2.4-0.1-2.6-0.6-0.7-1.6-3-1-2.3-1-3 0.7-0.6 19.6-0.6 4.7 0 4.7 0.2 0 1.2-0.6 2.6-0.5 1.4-1.1 2.2-0.6 0.8-0.8 0.7-0.2 0-2.3 0-2 0-5.7 0.2-3.6 0.3-3.9 0.6-0.4 0.3-0.4 6.1l0.1 2.4q2.2-0.1 6.6-0.1 4.3 0 4.3 0.2 0 2-1.3 4.5-0.5 1-0.6 0.9-1.5 0-5 0.2-3.5 0.3-4.1 0.6 0 0.1 0 4.7 0 4.6 0.3 4.9 0.9 0.9 9.6 0.9 3.5 0 4.7-0.2 1.2-0.2 1.2-0.1 0 1.3-0.9 3.1-0.9 1.9-1.8 2.8-0.6 0.6-10.1 0.6-0.2 0-0.5 0-8.9 0-9.2-0.5-0.4-0.3-0.4-5.4 0-0.5 0-1.1 0-4.6 0.1-9.6-1-0.9-1.9-2.8-0.9-1.9-0.9-3.3zm36.2-13.2q0-0.2 0.8-0.5 2.3-1 4.3-1 1.9 0 1.9 0.1 0.2 2.7 3.3 14.4 3.1 11.7 5.3 16.2 0.5 1 1 0.6 0.2-0.2 0.2-0.4 1.5-2.9 4.4-11.6 2.8-8.7 2.8-14.3 0-0.7-1.3-1.5-1.2-0.8-2.2-0.9-0.1-0.1-0.1-0.6 0-0.5 0.3-1.6 0.3-1.1 0.5-1.2 5.1-1.4 10.3-1.4 0.8 0.1 0.8 0.2 0 4.8-2.6 14.3-2.6 9.6-5.3 17.1-2.8 7.5-3.6 8.3-2.5 1.3-8.3 1.3-0.5 0-0.6-0.1-1.9-1.6-6.9-16.7-5-15.1-5-20.7zm40.7 19.7q0-3.5 0.8-6.6 0.8-3 1.6-4.3 0.7-1.3 1.1-1.5 0.5-0.3 3.6-0.3h1q0-2.7 1.1-4.8 1.1-2.1 2.8-3.1 3.2-1.8 6.1-1.8 0 0 0 0 15.5 0 15.5 19.5 0 6-2 10.8-1.2 2.6-3.1 4.6-1.9 1.9-5 3.1-3.2 1.2-7.3 1.2-8.3 0-12.2-4.8-4-4.7-4-12zm7.1-0.3q0 4.7 2.6 8 2.6 3.3 6.6 3.3 10.1 0 10.1-14.4 0-13.1-7.8-13.1-2.2 0-3.4 1.3-1.2 1.3-1.2 3.3 0 1.9 1.3 4.6 1.2 2.7 2.5 4.2l1.2 1.6q0 0.7-2 1.3-2.1 0.5-3.3 0.5-0.3 0-1.2-1-0.8-1.1-2-3.3-1.1-2.1-1.6-4.6-0.9 0.8-1.4 3.4-0.4 2.6-0.4 4.9zm40-18q-0.7-2-0.7-2.5 0-0.4 0.1-0.6 0.1-0.1 2.8-0.3 2.8-0.2 5.6-0.2 2.9 0 3.2 0.3 9.9 22.1 10.1 22.5 0.2 0.5 0.3 0.5l0.2-0.4v-1.6q0-4.7-0.3-11.8-0.3-7.1-0.6-8.8 0.7-0.7 2.8-1.3 2.1-0.5 3.8-0.5 1.7 0 1.7 0.3 0 1.1-0.4 2.6-0.4 1.5-0.4 1.6-0.4 2.4-0.4 7.8 0 1.3 0 2.5 0 3.4 0.1 5.1 0 2.4 0.1 4.5 0 2.2 0 4.3 0.1 2.1 0.1 3.8 0.1 3.7 0.1 5.1v0.8q0 0.2-0.7 0.4-2.1 0.9-5.6 0.9-0.1 0-0.2 0l-2.1-0.2q-2.3-6.3-6.5-15.9-4.3-9.6-4.8-10.3-0.5-0.8-0.6-0.8l-0.2 0.4q-0.2 1.6-0.2 6.7 0 5.2 0.2 11.3 0.3 6 0.6 7.6-1.5 1.3-5.4 1.3-1.1 0-2-0.3v-1.6q0-8.6 0.5-24.8l0.2-5.4q-0.7-0.9-1.4-3zm41.8 28.9q0-0.3 0-0.6 0-5 0.3-6 0.1-0.5 1.9-1.2 1.8-0.8 3.4-0.8 0 6.6 1.4 8 0.6 0.5 2.1 0.5 3.6 0 6.3-2 2.6-1.9 2.6-4.7 0-1.8-1.7-3.2-1.8-1.4-4.2-2.4-2.5-1.1-4.9-2.2-2.5-1.2-4.3-3.2-1.7-2-1.7-4.7 0-4.1 4.9-7.4 4.9-3.4 14.1-3.4 2.2 0 2.5 0.3 0.1 0.2 0.1 0.8 0 0.6-0.4 2.5-0.4 1.8-1.1 2.5-0.8-0.2-2-0.2 0 0-0.1 0-1.2 0-2.7 0.3-1.6 0.2-3.4 0.7-1.7 0.4-2.8 1.4-1.2 1-1.2 2.5 0 1.4 1.7 2.5 1.7 1.1 4.1 2 2.4 0.9 4.9 2.1 2.4 1.1 4.1 3.4 1.7 2.2 1.7 5.4 0 5.7-5.4 9.6-5.4 3.9-13.6 3.9-4.1 0-6.1-0.4-0.5-0.5-0.5-6zm38.4-16.9q0-0.2 2.7-0.2 0.1-4 0.1-9.1v-1.2q-1.5-2.6-1.5-5.2 0-0.2 0.1-0.3 0.3-0.1 0.6-0.1 0.3 0 1.2 0 1 0 2.8 0.4 1.8 0.3 2.8 0.8 1.1 0.4 1.1 0.7-0.4 2.7-0.4 12.7v1.1h7.4q4.1 0 4.1 0.1 0-7.3 0.3-10.7 0.2-3.3 0.2-3.4 0-0.1 0.8-0.6 0.8-0.4 2.2-0.8 1.5-0.4 2.5-0.4 1.1 0 1.1 0.2-0.7 8-0.7 17.1 0 0.2 0.1 0.4 0 9.2 0.5 13.8 0.6 4.5 2.4 6.3 0 0.1-0.5 0.6-0.5 0.4-2.5 1.1-2 0.6-3.7 0.6l-0.7-0.1q-1-1.1-1.4-4.4-0.5-3.3-0.5-14-1 0-6 0-5.1 0-5.7 0.1 0 1.6 0 6.9 0 5.3 0.4 8.9 0 0.6-1.8 1-1.7 0.5-3.3 0.5-1.5 0-1.8-0.3-0.3-0.4-0.3-10.3v-6.6q-0.7-0.6-1.7-2.5-0.9-1.9-0.9-3.1zm21-0.3q0 0 0 0 0 0 0 0zm21.9 23.1q-0.1 0-0.1-2.4 0-2.5 0.3-3 0.7-0.3 2.2-0.3-0.1-1.9-0.1-13.5 0-11.6 0.3-13.3h-0.1q-1.5 0-2.5 0.3-0.1 0-0.1-2.5 0-2.6 0.3-2.9 0.3-0.3 4.5-0.6 4.1-0.3 6.9-0.3 0.1 0 0.1 0.9l-0.1 4.1q0 0.2-0.2 0.2-1.9 0-2 0.1-0.1 0.1-0.2 2.4-0.2 8.8-0.2 15.2 0 6.4 0.4 9.4 0.8-0.1 2.3-0.1 0.2 0 0.2 2.8 0 0.1 0.1 0.2 0 2.5-0.4 2.5-8.1 0-11.6 0.8zm26.3-35.1q-0.7-2.1-0.7-2.5 0-0.5 0.1-0.6 0.1-0.2 3.5-0.4 3.5-0.1 7-0.1 3.5 0 6.2 0.3 2.8 0.4 5.7 1.4 3 1 4.7 3.1 1.7 2.1 1.7 5.4 0 3.3-2.3 6.2-2.4 2.8-6.4 4.8 0 0.9 3.5 8 3.5 7.1 5.6 9.1 0 0.1 0 0.2 0 0.2-0.9 0.5-2.4 1.2-5.2 1.2l-1.4-0.1q-1.2-1.2-4.3-8.1-3-6.9-3.4-8.5-0.7 0.4-5.2 1.2 0.1 11.2 0.5 13-0.6 0.6-2.4 1-1.9 0.3-3.1 0.3-1.3 0-2.2-0.3l0.4-32.1q-0.7-0.9-1.4-3zm8.1 14.9q6.6-0.6 9.7-3.1 3-2.5 3-4.9 0-2.4-2.4-3.6-2.4-1.1-6-1.1-2 0-4 0.3-0.3 2.4-0.3 12.4zm32.8-2.8q0 0 2.9-0.1l0.1-6q0-2.4-0.1-2.6-0.6-0.7-1.6-3-1-2.3-1-3 0.7-0.6 19.6-0.6 4.7 0 4.7 0.2 0 1.2-0.6 2.6-0.5 1.4-1.1 2.2-0.6 0.8-0.8 0.7-0.2 0-2.3 0-2 0-5.7 0.2-3.6 0.3-3.9 0.6-0.4 0.3-0.4 6.1l0.1 2.4q2.2-0.1 6.6-0.1 4.3 0 4.3 0.2 0 2-1.3 4.5-0.5 1-0.6 0.9-1.5 0-5 0.2-3.5 0.3-4.1 0.6 0 0.1 0 4.7 0 4.6 0.3 4.9 0.9 0.9 9.6 0.9 3.5 0 4.7-0.2 1.2-0.2 1.2-0.1 0 1.3-0.9 3.1-0.9 1.9-1.8 2.8-0.6 0.6-10.1 0.6-0.2 0-0.5 0-8.9 0-9.2-0.5-0.4-0.3-0.4-5.4 0-0.5 0-1.1 0-4.6 0.1-9.6-1-0.9-1.9-2.8-0.9-1.9-0.9-3.3zm59.5-12.2q-1-2.4-1-2.9 0-0.4 0.1-0.5 0.5-0.5 6.6-0.6 11.6 0 17.9 4.9 6.3 4.9 6.3 13 0 4-1.3 7.4-1.3 3.3-3.4 5.6-2.2 2.3-4.8 4.1-2.7 1.8-5.6 2.8-5.8 1.9-10.5 1.9-2.3 0-2.6-0.4-0.3-0.3-0.3-9.9l0.1-22q-0.6-0.9-1.5-3.4zm8.8 2.5q-0.4 0.4-0.4 13.1 0 12.8 0.4 13.2 0.1 0.1 0.8 0.1 0.7 0 2.2-0.4 1.4-0.4 3.3-1.4 1.9-1.1 3.5-2.8 1.6-1.6 2.8-4.3 1.1-2.8 1.1-5.9 0-3.1-1.1-5.3-1.2-2.2-2.7-3.4-1.4-1.1-3.4-1.8-3-1.1-5.7-1.1-0.8 0-0.8 0zm33.9 9.7q0 0 2.9-0.1l0.1-6q0-2.4-0.1-2.6-0.6-0.7-1.6-3-1-2.3-1-3 0.7-0.6 19.6-0.6 4.7 0 4.7 0.2 0 1.2-0.6 2.6-0.5 1.4-1.1 2.2-0.6 0.8-0.8 0.7-0.2 0-2.3 0-2 0-5.6 0.2-3.7 0.3-4 0.6-0.3 0.3-0.3 6.1v2.4q2.2-0.1 6.6-0.1 4.3 0 4.3 0.2 0 2-1.3 4.5-0.5 1-0.6 0.9-1.5 0-5 0.2-3.5 0.3-4 0.6-0.1 0.1-0.1 4.7 0 4.6 0.3 4.9 0.9 0.9 9.6 0.9 3.5 0 4.7-0.2 1.2-0.2 1.2-0.1 0 1.3-0.9 3.1-0.9 1.9-1.8 2.8-0.6 0.6-10.1 0.6-0.2 0-0.5 0-8.9 0-9.2-0.5-0.4-0.3-0.4-5.4 0-0.5 0-1.1 0-4.6 0.1-9.6-1-0.9-1.9-2.8-0.9-1.9-0.9-3.3zm36.2-13.2q0-0.2 0.8-0.5 2.3-1 4.2-1 2 0 2 0.1 0.2 2.7 3.3 14.4 3.1 11.7 5.3 16.2 0.5 1 1 0.6 0.2-0.2 0.2-0.4 1.5-2.9 4.4-11.6 2.8-8.7 2.8-14.3 0-0.7-1.3-1.5-1.2-0.8-2.2-0.9-0.1-0.1-0.1-0.6 0-0.5 0.3-1.6 0.3-1.1 0.5-1.2 5.1-1.4 10.3-1.4 0.8 0.1 0.8 0.2 0 4.8-2.6 14.3-2.6 9.6-5.3 17.1-2.8 7.5-3.6 8.3-2.5 1.3-8.2 1.3-0.6 0-0.7-0.1-1.9-1.6-6.9-16.7-5-15.1-5-20.7zm63.4 30.3q0-0.3 0-0.6 0-5 0.3-6 0.1-0.5 1.9-1.2 1.8-0.8 3.5-0.8 0 6.6 1.3 8 0.6 0.5 2.2 0.5 3.5 0 6.2-2 2.6-1.9 2.6-4.7 0-1.8-1.7-3.2-1.7-1.4-4.2-2.4-2.5-1.1-4.9-2.2-2.5-1.2-4.2-3.2-1.7-2-1.7-4.7 0-4.1 4.8-7.4 4.9-3.4 14.2-3.4 2.1 0 2.4 0.3 0.1 0.2 0.1 0.8 0 0.6-0.4 2.5-0.4 1.8-1 2.5-0.9-0.2-2.1-0.2 0 0-0.1 0-1.1 0-2.7 0.3-1.6 0.2-3.4 0.7-1.7 0.4-2.8 1.4-1.1 1-1.1 2.5 0 1.4 1.7 2.5 1.7 1.1 4.1 2 2.4 0.9 4.8 2.1 2.4 1.1 4.1 3.4 1.7 2.2 1.7 5.4 0 5.7-5.4 9.6-5.3 3.9-13.5 3.9-4.2 0-6.2-0.4-0.5-0.5-0.5-6zm38.4-16.9q0-0.2 2.7-0.2 0.1-4 0.1-9.1v-1.2q-1.5-2.6-1.5-5.2 0-0.2 0.1-0.3 0.3-0.1 0.6-0.1 0.3 0 1.3 0 0.9 0 2.7 0.4 1.8 0.3 2.8 0.8 1.1 0.4 1.1 0.7-0.4 2.7-0.4 12.7v1.1h7.5q4 0 4.1 0.1 0-7.3 0.2-10.7 0.2-3.3 0.2-3.4 0-0.1 0.8-0.6 0.8-0.4 2.3-0.8 1.4-0.4 2.4-0.4 1.1 0 1.1 0.2-0.7 8-0.7 17.1 0 0.2 0.1 0.4 0 9.2 0.5 13.8 0.6 4.5 2.5 6.3 0 0.1-0.6 0.6-0.5 0.4-2.5 1.1-1.9 0.6-3.7 0.6l-0.6-0.1q-1.1-1.1-1.5-4.4-0.4-3.3-0.5-14-0.9 0-6 0-5.1 0-5.6 0.1-0.1 1.6-0.1 6.9 0 5.3 0.4 8.9 0 0.6-1.7 1-1.8 0.5-3.3 0.5-1.6 0-1.9-0.3-0.3-0.4-0.3-10.3v-6.6q-0.7-0.6-1.7-2.5-0.9-1.9-0.9-3.1zm21.1-0.3q0 0 0 0 0 0 0 0zm20.9 6.6q0-3.5 0.8-6.6 0.8-3 1.6-4.3 0.7-1.3 1.1-1.5 0.5-0.3 3.5-0.3h1.1q0-2.7 1.1-4.8 1-2.1 2.8-3.1 3.2-1.8 6-1.8 0.1 0 0.1 0 15.5 0 15.5 19.5 0 6-2 10.8-1.2 2.6-3.1 4.6-1.9 1.9-5.1 3.1-3.1 1.2-7.2 1.2-8.3 0-12.3-4.8-3.9-4.7-3.9-12zm7-0.3q0 4.7 2.7 8 2.6 3.3 6.6 3.3 10.1 0 10.1-14.4 0-13.1-7.8-13.1-2.2 0-3.4 1.3-1.2 1.3-1.2 3.3 0 1.9 1.3 4.6 1.2 2.7 2.5 4.2l1.2 1.6q0 0.7-2 1.3-2.1 0.5-3.4 0.5-0.2 0-1.1-1-0.8-1.1-2-3.3-1.1-2.1-1.6-4.6-0.9 0.8-1.4 3.4-0.5 2.6-0.5 4.9zm40.1-18.3q-0.7-2.1-0.7-2.5 0-0.5 0.1-0.6 0.2-0.2 3.6-0.4 3.4-0.1 6.9-0.1 3.5 0 6.2 0.3 2.8 0.4 5.6 1.4 2.9 1.1 4.6 3.2 1.7 2.2 1.7 5.5 0 3.4-2 6.1-2.1 2.8-5 4.3-6 3.1-10.8 3.6l-2 0.3q0.2 11.4 0.5 13-0.6 0.6-2.4 1-1.8 0.3-3.1 0.3-1.3 0-2.1-0.3l0.4-32.1q-0.8-0.9-1.5-3zm8.2 14.9q12.4-1.1 12.4-7.9 0-2.3-2.3-3.6-2.3-1.2-5.9-1.2l-4 0.3q-0.2 2-0.2 12.4z"/>
			</g>
		</g>
	</g>
	<g id="tagline-7608e0ce-c04e-4fb1-82cf-d79ebeb39df0-logo">
		<g>
			<g id="tagline-7608e0ce-c04e-4fb1-82cf-d79ebeb39df0-logo-path-0">
				<path fill-rule="evenodd" class="s1" d="m277.5 134q0-2.3 1.1-8.1 1.1-5.8 1.3-7.4l-2.1-4.3q5.1-2.9 8.7-2.9 1.8 0 2.6 1.2 3.4-1.1 6.2-1.2 5.3 0 8.2 3.5 2.9 3.4 2.9 8.4 0 6.7-5 12.4-2.3 2.6-6.2 4.3-3.9 1.7-8.4 1.7-4.4 0-6.9-2-2.4-2-2.4-5.6zm8.5 1.5q0.9 0.2 1.9 0.2 4.4 0 6.9-3.2 2.5-3.1 2.5-7.8 0-3.7-1.8-6-1.6-2.2-4.8-2.2-0.5 0-1.6 0.2-0.3 2-1.5 9.2-1.2 7.1-1.6 9.6zm33.1 4.6q-1.1-1.5-1.1-4.5 0-3 2.5-17.1l-2.1-4.3q4.5-2.9 8.3-2.9 2.4 0 2.9 2.2 4.6-0.1 11.4-2.1 0.3 1.4 0.3 2.7 0 3.3-2.1 4.9-2.2 1.7-5.6 1.7-2.3 0-4.5-1-0.3 1.8-1.1 5.9 1.5 0.3 2.5 0.3 1.7-0.3 3.7-0.9 0.2 0.7 0.2 2.2 0 1.6-1.3 2.5-1.2 0.9-2.8 0.9-1.5 0-3.2-0.3-0.4 2.5-0.4 4.8h6.5q3.1-0.5 6.2-1.6 0.2 0.7 0.3 2 0 2.4-1.4 4.2-1.4 1.9-3.9 1.9-1.3 0-3.8-0.5-2.5-0.5-3.6-0.7-2 1.2-4.4 1.2-2.3 0-3.5-1.5zm30.6-26.7q2.8-2.1 6.3-2.1 3.2 0 4.8 2.5 1.6 2.5 2.1 6 0.4 3.2 0.4 7.6l-0.1 6.8h1q2.3-4.8 4.2-10.3 1.9-5.4 1.9-8.3 0-1.2-0.5-2.2 3.1-2.1 5.7-2.1 4 0 4 4.5 0 2.3-1.2 5.8-1.3 3.4-3.7 8.6-2.4 5.2-2.6 5.6l0.6 2.2q-1.9 1.5-4.8 2.5-2.9 1.1-6.4 1.1-3.5 0-5.2-1.2-1.7-1.1-1.7-3.8l0.1-7.4q0-9.2-2.3-13-1-1.8-2.6-2.8zm63.4 26.7q-1.1-1.5-1.1-4.5 0-3 2.5-17.1l-2.1-4.3q4.5-2.9 8.3-2.9 2.4 0 2.9 2.2 4.6-0.1 11.4-2.1 0.3 1.4 0.3 2.7 0 3.3-2.1 4.9-2.2 1.7-5.6 1.7-2.3 0-4.5-1-0.3 1.8-1.1 5.9 1.5 0.3 2.5 0.3 1.7-0.3 3.7-0.9 0.2 0.7 0.2 2.2 0 1.6-1.3 2.5-1.2 0.9-2.8 0.9-1.5 0-3.1-0.3-0.5 2.5-0.5 4.8h6.5q3.1-0.5 6.2-1.6 0.2 0.7 0.3 2 0 2.4-1.4 4.2-1.4 1.9-3.9 1.9-1.3 0-3.8-0.5-2.5-0.5-3.6-0.7-2 1.2-4.4 1.2-2.3 0-3.5-1.5zm31-2.3q0-4.8 9.7-11.9l-3.6-6.8q-2.1-4-4.9-4.9 2.7-2.9 6.5-2.9 2.7 0 4.2 1.4 1.6 1.4 3.9 5.7l1.6 3.1q2.8-3.2 2.9-5.9 0-1.2-0.5-2.2 3.1-2.1 6-2.1 2.2 0 3.2 1.1 1 1.1 1 2.7 0 5.1-9.6 12.1l3.5 6.5q2.1 4.1 5 5-2.8 2.9-6.5 2.9-2.7 0-4.3-1.4-1.6-1.5-3.8-5.7l-1.7-3.1q-2.8 3.2-2.8 5.9 0 1.2 0.4 2.2-3.1 2.1-6 2.1-2.1 0-3.2-1.1-1-1.1-1-2.7zm42.6 2.3q-1.2-1.5-1.2-4.5 0-3 2.6-17.1l-2.2-4.3q4.6-2.9 8.4-2.9 1 0 2.3 0.3 1.2 0.4 1.7 0.9 3-1.1 5.6-1.2 3.8 0 5.9 2.7 2.2 2.6 2.2 6.4 0 4.5-3.2 8.1-1.6 1.7-4.3 2.7-2.6 1.1-5.4 1.1-2.7 0-4.6-0.6-0.2 1.5-0.2 2.2 0 4 1.2 5.9-2.4 1.8-5.1 1.8-2.6 0-3.7-1.5zm8.5-13q0.6 0.1 1.2 0.1 2.6 0 4.6-1.8 2.1-1.8 2.1-4.4 0-1.9-1.1-3.2-1.1-1.3-3-1.3-0.8 0-1.9 0.3-0.8 5.6-1.9 10.3zm29.6 13q-1.1-1.5-1.1-4.5 0-3 2.5-17.1l-2.1-4.3q4.5-2.9 8.3-2.9 2.3 0 2.9 2.2 4.6-0.1 11.4-2.1 0.3 1.4 0.3 2.7 0 3.3-2.1 4.9-2.2 1.7-5.6 1.7-2.3 0-4.5-1-0.3 1.8-1.1 5.9 1.5 0.3 2.5 0.3 1.7-0.3 3.6-0.9 0.2 0.7 0.2 2.2 0 1.6-1.2 2.5-1.3 0.9-2.8 0.9-1.6 0-3.2-0.3-0.4 2.5-0.4 4.8h6.5q3.1-0.5 6.2-1.6 0.2 0.7 0.2 2 0 2.4-1.4 4.2-1.4 1.9-3.8 1.9-1.3 0-3.8-0.5-2.5-0.5-3.7-0.7-1.9 1.2-4.3 1.2-2.4 0-3.5-1.5zm34.2 0q-1.2-1.5-1.2-4.5 0-3 2.6-17.1l-2.2-4.3q4.5-2.9 8.3-2.9 2.9 0 4.5 1.2 3.1-1.2 5.5-1.2 3.7 0 5.9 2.5 2.1 2.5 2.1 6 0 2.6-1.3 5.1-1.3 2.4-3.9 4 1.3 3.9 3.1 6.7 1.7 2.8 3.4 3.7-0.9 0.9-2.6 1.6-1.8 0.7-3.2 0.7-2.7 0-4.4-1.4-1.6-1.4-3-5.3l-1.4-4q-2.1 0-4.2-0.7-0.5 2.6-0.5 3.7 0 4 1.3 5.9-2.5 1.8-5.1 1.8-2.6 0-3.7-1.5zm8.8-14.3q0.3 0 1 0 3.2 0 5-1.6 1.8-1.7 1.8-3.6 0-1.9-1.1-3-1-1.1-3-1.1-1 0-2.1 0.3-1.3 7.7-1.6 9zm26.9-7.5q0-3.3 1.7-4.9 1.7-1.7 4-1.7 2.4 0 6.5 0.8 4 0.8 6.1 0.9 3.4-0.7 6.5-1.6 0.4 1 0.4 2.6 0 3.3-1.9 4.9-1.9 1.7-4.8 1.7-0.7 0-1.9-0.1-2.2 11.6-2.2 13 0 4 1.2 5.9-2.5 1.8-5.1 1.8-2.6 0-3.7-1.5-1.2-1.5-1.2-4.5 0-3 2.4-16.1-4.6 0.7-7.7 1.4-0.3-1-0.3-2.6zm36.7 21.6q-2.6-1.7-2.6-4.5 0-2.8 1.7-5.1 0.9 1.8 3.2 3.2 2.4 1.5 4.8 1.5 4.3 0 5.5-2.8-6.7-0.8-10.2-3.7-3.6-2.8-3.6-6.9 0-2.7 1.5-4.8 1.5-2.1 3.7-3.2 4.5-2.3 8.7-2.3 5.3 0 8 1.2 2.6 1.3 2.6 3.9 0 2.7-1.6 4.1-1.6 1.4-3.8 1.4-2 0-3.7-1.1-1.7-1-2.3-2.8-1.5 0-2.9 1-1.3 1-1.7 2.5 8 2 11.5 4.6 3.4 2.6 3.4 6.6 0 4-3.6 6.4-3.7 2.5-9.9 2.5-6.2 0-8.7-1.7zm54-2.6q0-2.2 1.3-5.5 1.4-3.3 3.6-7.6 2.2-4.3 2.8-5.7-0.4-2.2-1-4.2 2.1-1.5 4.1-2.3 2-0.7 4.2-0.7 2.3 0 3.2 1 2.3-1 3.8-1 1.5 0 2.2 0.5 0.7 0.5 1.1 1.4 0.5 1.6 0.5 4l-0.3 9.6q0 5 0.8 8.4 0.9 3.4 3.1 4.7-2.7 1.7-5.6 1.7-5.1 0-6.2-8.1h-8.3q-0.7 2.6-0.7 4 0 1.4 0.3 2.2-3 1.9-5.3 1.9-3.6 0-3.6-4.3zm11-8.1h6.3q0-4.4 0.4-11h-1.3q-3.6 7-5.4 11zm26.7-10.9q0-3.3 1.7-4.9 1.7-1.7 4.1-1.7 2.3 0 6.4 0.8 4.1 0.8 6.1 0.9 3.4-0.7 6.6-1.6 0.3 1 0.3 2.6 0 3.3-1.9 4.9-1.9 1.7-4.8 1.7-0.7 0-1.9-0.1-2.2 11.6-2.2 13 0 4 1.2 5.9-2.4 1.8-5.1 1.8-2.6 0-3.7-1.5-1.2-1.5-1.2-4.5 0-3 2.4-16.1-4.6 0.7-7.7 1.4-0.3-1-0.3-2.6zm53.6-5.1q3.1-1.9 5.1-1.9 1.9 0 3.2 0.6 1.3 0.7 2.1 1.6 0.9 0.9 1.5 2.5 0.6 1.6 1 3 0.3 1.3 0.5 3.4 0.2 2.1 0.3 3.4 0.1 1.3 0.1 3.4 0.1 2.1 0.1 2.9h0.6q1.6-3.7 2.9-8.6 1.3-4.8 1.3-7.7 0-1.4-0.6-2.6 3-1.9 5.3-1.9 4.5 0 4.5 4.7 0 2.4-1.8 8-1.9 5.6-4.3 10.8-3.2 6.8-6.6 9.9-3.3 3-8.6 3-2.4 0-4.3-0.9-2.3-1.1-2.3-3.7 0-2.6 2-5.3 0.9 1.3 2.4 2 1.5 0.7 3.3 0.7 1.8 0 3.4-1 1.6-1 2.3-2.9-2.2 0.6-3.9 0.6-3.9 0-4.2-3.9-0.1-0.8-0.2-3.4-0.1-2.6-0.2-3.9-0.1-1.4-0.4-3.7-0.4-2.4-0.9-3.8-1.3-3.7-3.6-5.3zm37.7 15q0-7.7 4.3-12.3 4.2-4.6 11.7-4.6 2.3 0 3.4 1 1 0.9 1 2.9 0 0.3-0.1 1.1 1.5-1.2 3.3-1.2 2.5 0 4.2 2.2 1.8 2.2 1.8 6.3 0 4.2-1.3 7.6-1.4 3.5-3.6 5.7-2.2 2.2-5 3.4-2.8 1.3-5.8 1.3-6.4 0-10.2-3.7-3.7-3.7-3.7-9.7zm8.8-0.2q0 3.3 1.4 5.5 1.5 2.2 4.1 2.2 1.9 0 3.6-1.6 1.6-1.5 2.2-4-2.6-3.1-2.6-6.8 0-3.6 1.6-5.8-0.7-0.1-1.4-0.2-2.9 0-5 1.8-3.9 3.2-3.9 8.9zm33.2 6.7q0-2.3 0.7-6.1 0.6-3.8 1.1-6.5 0.4-2.6 0.6-3.6l-2.1-4.3q2.5-1.4 4.4-2.2 1.9-0.7 3.7-0.7 1.9 0 2.6 1 0.7 1 0.7 2.4 0 1.3-1.4 8.7-1.3 7.5-1.3 8.7 0 3.2 2.1 3.2 1.7 0 3.7-2 2.1-2.1 3.4-5.7-0.9-2.5-0.9-5.1 0-4.7 2.3-7.9 2.4-3.3 6.6-3.3 2.3 0 3.8 0.8-0.4 2.2-1.5 7.9-2.3 12.1-2.3 13.9 0 4 1.3 5.9-2.5 1.8-4.8 1.8-2.3 0-3.7-1.2-1.4-1.2-1.4-3.6 0-0.7 0-1.1l-0.3-0.1q-4.1 6-10.8 6-6.5 0-6.5-6.9zm43.5 5.4q-1.1-1.5-1.1-4.5 0-3 2.5-17.1l-2.1-4.3q4.5-2.9 8.3-2.9 2.9 0 4.5 1.2 3-1.2 5.4-1.2 3.7 0 5.9 2.5 2.2 2.5 2.2 6 0 2.6-1.4 5.1-1.3 2.4-3.9 4 1.4 3.9 3.1 6.7 1.7 2.8 3.4 3.7-0.8 0.9-2.6 1.6-1.7 0.7-3.2 0.7-2.7 0-4.3-1.4-1.7-1.4-3-5.3l-1.4-4q-2.1 0-4.3-0.7-0.4 2.6-0.4 3.7 0 4 1.2 5.9-2.4 1.8-5.1 1.8-2.6 0-3.7-1.5zm8.9-14.3q0.2 0 0.9 0 3.2 0 5-1.6 1.8-1.7 1.8-3.6 0-1.9-1-3-1.1-1.1-3-1.1-1.1 0-2.1 0.3-1.3 7.7-1.6 9zm51.6 14.1q-2.6-1.7-2.6-4.5 0-2.8 1.8-5.1 0.8 1.8 3.2 3.2 2.4 1.5 4.7 1.5 4.3 0 5.5-2.8-6.7-0.8-10.2-3.7-3.5-2.8-3.5-6.9 0-2.7 1.5-4.8 1.4-2.1 3.7-3.2 4.4-2.3 8.6-2.3 5.3 0 8 1.2 2.7 1.3 2.7 3.9 0 2.7-1.7 4.1-1.6 1.4-3.7 1.4-2.1 0-3.8-1.1-1.7-1-2.3-2.8-1.5 0-2.9 1-1.3 1-1.7 2.5 8 2 11.5 4.6 3.5 2.6 3.5 6.6 0 4-3.7 6.4-3.6 2.5-9.8 2.5-6.2 0-8.8-1.7zm36.5 0.2q-1.1-1.5-1.1-4.5 0-3 2.5-17.1l-2.1-4.3q4.5-2.9 8.3-2.9 2.4 0 2.9 2.2 4.6-0.1 11.4-2.1 0.3 1.4 0.3 2.7 0 3.3-2.1 4.9-2.2 1.7-5.6 1.7-2.3 0-4.5-1-0.3 1.8-1.1 5.9 1.5 0.3 2.5 0.3 1.7-0.3 3.7-0.9 0.2 0.7 0.2 2.2 0 1.6-1.3 2.5-1.2 0.9-2.8 0.9-1.5 0-3.1-0.3-0.5 2.5-0.5 4.8h6.5q3.1-0.5 6.2-1.6 0.2 0.7 0.3 2 0 2.4-1.4 4.2-1.4 1.9-3.9 1.9-1.3 0-3.8-0.5-2.5-0.5-3.7-0.7-1.9 1.2-4.3 1.2-2.3 0-3.5-1.5zm34.2 0q-1.2-1.5-1.2-4.5 0-3 2.6-17.1l-2.2-4.3q4.5-2.9 8.3-2.9 2.9 0 4.5 1.2 3.1-1.2 5.5-1.2 3.7 0 5.9 2.5 2.1 2.5 2.1 6 0 2.6-1.3 5.1-1.3 2.4-3.9 4 1.4 3.9 3.1 6.7 1.7 2.8 3.4 3.7-0.8 0.9-2.6 1.6-1.8 0.7-3.2 0.7-2.7 0-4.4-1.4-1.6-1.4-3-5.3l-1.4-4q-2.1 0-4.2-0.7-0.5 2.6-0.5 3.7 0 4 1.3 5.9-2.5 1.8-5.1 1.8-2.6 0-3.7-1.5zm8.9-14.3q0.2 0 0.9 0 3.2 0 5-1.6 1.8-1.7 1.8-3.6 0-1.9-1.1-3-1-1.1-3-1.1-1 0-2 0.3-1.3 7.7-1.6 9zm26.3-12.4q2.7-2.1 6.3-2.1 3.2 0 4.8 2.5 1.6 2.5 2 6 0.4 3.2 0.4 7.6l-0.1 6.8h1.1q2.2-4.8 4.1-10.3 1.9-5.4 1.9-8.3 0-1.2-0.4-2.2 3-2.1 5.6-2.1 4.1 0 4.1 4.5 0 2.3-1.3 5.8-1.2 3.4-3.6 8.6-2.4 5.2-2.6 5.6l0.6 2.2q-1.9 1.5-4.8 2.5-2.9 1.1-6.4 1.1-3.5 0-5.2-1.2-1.7-1.1-1.7-3.8v-7.4q0-9.2-2.2-13-1.1-1.8-2.6-2.8zm42.3 26.7q-1.1-1.5-1.1-4.5 0-3 2.5-17.1l-2.1-4.3q4.5-2.9 8.3-2.9 3.1 0 3.1 3.8 0 1.2-1.6 9.3-1.5 8-1.5 9.5 0 4 1.2 5.9-2.4 1.8-5.1 1.8-2.6 0-3.7-1.5zm22.3-11.9q0-2.9 1.2-5.8 1.2-2.9 3.4-5.4 2.3-2.5 5.8-4.1 3.6-1.6 7.4-1.6 3.8 0 6 1.4 2.1 1.4 2.1 3.9 0 2.5-1.6 3.9-1.6 1.4-3.7 1.4-2.2 0-3.8-0.9-1.7-0.9-2.7-2.6-2.2 1.1-3.7 4.1-1.6 3.1-1.6 6.2 0 3.1 1 4.9 1 1.7 2.8 1.7 1.9 0 3.3-1.9 1.5-1.9 1.5-4.5 4 0 5.8 0.6 1.8 0.7 1.8 2.8 0 3.4-3.7 6.3-3.6 3-9.1 3-5.5 0-8.9-3.4-3.3-3.4-3.3-10zm39.1 11.9q-1.2-1.5-1.2-4.5 0-3 2.6-17.1l-2.2-4.3q4.6-2.9 8.3-2.9 2.4 0 3 2.2 4.5-0.1 11.4-2.1 0.3 1.4 0.3 2.7 0 3.3-2.2 4.9-2.1 1.7-5.5 1.7-2.3 0-4.5-1-0.4 1.8-1.2 5.9 1.5 0.3 2.6 0.3 1.6-0.3 3.6-0.9 0.2 0.7 0.2 2.2 0 1.6-1.2 2.5-1.3 0.9-2.8 0.9-1.6 0-3.2-0.3-0.5 2.5-0.5 4.8h6.6q3.1-0.5 6.1-1.6 0.3 0.7 0.3 2 0 2.4-1.4 4.2-1.4 1.9-3.8 1.9-1.4 0-3.8-0.5-2.5-0.5-3.7-0.7-1.9 1.2-4.3 1.2-2.4 0-3.5-1.5z"/>
			</g>
		</g>
	</g>
</svg>