<svg version="1.2" xmlns="http://www.w3.org/2000/svg" viewBox="0 0 866 518" width="866" height="518">
	<title>SideSVG-svg</title>
	<style>
		.s0 { fill: none } 
		.s1 { fill: #ffb30c } 
		.s2 { fill: #0a4570 } 
		.s3 { fill: #1a4c63;stroke: #ffffff;stroke-width: .4 } 
	</style>
	<g id="background-logo">
		<path class="s0" d="m-208-247h1280v1024h-1280z"/>
	</g>
	<g id="logo-logo">
		<g>
			<g>
				<path fill-rule="evenodd" class="s1" d="m328.2 183.7c0-10.6 6-20 15.2-24.5v-36.2h-36.6l-12.5 117.1 49.3-31.8c-9.1-4.5-15.4-13.8-15.4-24.6zm168.2-60.7h-6.1l-109.2 70.6c-4 10.2-13.9 17.5-25.5 17.5q-0.7 0-1.4-0.1l-61 39.5-1.7 16.2 204.9-132.5zm-113.4 59.8l75.3-48.8h-63l-4.8-11h-22.9v36c9.1 4.4 15 13.5 15.4 23.8zm178.9-15.1l-26.1 17c-0.6 14.6-12.6 26.3-27.4 26.3-3.6 0-7.1-0.7-10.3-2l-99.3 64.2h174.4z"/>
			</g>
			<g>
				<path fill-rule="evenodd" class="s2" d="m349 162.9v-79.1c0-45.8 37.2-83 83-83 45.8 0 83 37.2 83 83v79.1c8.8 2.8 15.2 11.1 15.2 20.8 0 12-9.8 21.7-21.8 21.7-12 0-21.8-9.7-21.8-21.7 0-9.8 6.5-18.1 15.4-20.8v-79.1c0-38.7-31.3-70-70-70-38.7 0-70 31.3-70 70v79.1c8.9 2.7 15.4 11 15.4 20.8 0 12-9.8 21.7-21.8 21.7-12 0-21.8-9.7-21.8-21.7 0-9.7 6.4-18 15.2-20.8zm290.3 135.9l-8.8 16.1c-3.5 6.3-10.1 10.3-17.3 10.3h-362.4c-7.2 0-13.8-4-17.3-10.3l-8.8-16.1c-2.7-5.1 0.9-11.3 6.7-11.3h43.5l18.2-170c0.5-5 4.7-8.8 9.7-8.8h40.6v8.7h-41.6l-17.3 161.5h295l-17.3-161.5h-41.6v-8.7h40.6c5 0 9.2 3.8 9.7 8.8l18.2 170h43.5c5.8 0 9.4 6.2 6.7 11.3zm-88.1 7.5c0-2.9-2.4-5.3-5.4-5.3h-227.6c-3 0-5.4 2.4-5.4 5.3 0 3 2.4 5.4 5.4 5.4h227.6c3 0 5.4-2.4 5.4-5.4zm-54.8-188.9h-26.6l-4.8 11h-66l-4.8-11h-26.6v-8.7h128.8z"/>
			</g>
		</g>
	</g>
	<g id="text-logo">
		<g>
			<g id="text-logo-path-0">
				<path fill-rule="evenodd" class="s3" d="m2.5 398.1q-1.2-2.9-1.2-3.5 0-0.6 0.1-0.6 0.6-0.7 7.9-0.7 14 0 21.6 5.8 7.7 5.9 7.7 15.7 0 4.8-1.6 8.9-1.5 4.1-4.1 6.9-2.6 2.8-5.8 4.9-3.2 2.1-6.7 3.3-7 2.3-12.8 2.3-2.7 0-3.1-0.4-0.4-0.4-0.4-12l0.2-26.5q-0.7-1.2-1.8-4.1zm10.6 3q-0.4 0.4-0.4 15.8 0 15.4 0.4 15.9 0.2 0.2 1 0.2 0.9 0 2.6-0.5 1.7-0.5 4-1.8 2.3-1.3 4.3-3.3 1.9-1.9 3.3-5.2 1.3-3.4 1.3-7.1 0-3.8-1.3-6.5-1.4-2.6-3.2-4-1.8-1.4-4.1-2.2-3.7-1.4-7-1.4-0.9 0-0.9 0.1zm40.9 11.7q0 0 3.6-0.2l0.1-7.2q0-2.9-0.2-3.2-0.8-0.7-1.9-3.5-1.2-2.9-1.2-3.7 0.8-0.7 23.6-0.7 5.7 0 5.7 0.2 0 1.5-0.7 3.2-0.6 1.6-1.3 2.6-0.7 1-1 1-0.3-0.1-2.8-0.1-2.4 0-6.8 0.2-4.4 0.4-4.8 0.8-0.4 0.4-0.4 7.4l0.1 2.8q2.7-0.1 7.9-0.1 5.3 0 5.3 0.2 0 2.4-1.6 5.5-0.6 1.1-0.8 1-1.7 0-6 0.3-4.2 0.3-4.9 0.8-0.1 0-0.1 5.6 0 5.6 0.4 5.9 1.1 1.1 11.6 1.1 4.2 0 5.7-0.2 1.5-0.3 1.5-0.2 0 1.6-1.1 3.8-1.1 2.2-2.3 3.4-0.7 0.6-12.1 0.6-0.3 0-0.6 0.1-10.8 0-11.2-0.6-0.4-0.3-0.4-6.5 0-0.7 0-1.3 0-5.6 0.1-11.7-1.2-1.1-2.3-3.3-1.1-2.3-1.1-4zm43.7-16q0-0.1 1-0.5 2.8-1.3 5.1-1.3 2.3 0 2.3 0.2 0.3 3.3 4 17.4 3.8 14.1 6.5 19.5 0.5 1.3 1.2 0.7 0.2-0.2 0.2-0.5 1.9-3.4 5.2-14 3.4-10.5 3.4-17.3 0-0.8-1.5-1.7-1.5-1-2.7-1.1-0.1-0.1-0.1-0.7 0-0.6 0.4-2 0.3-1.3 0.6-1.5 6.2-1.6 12.4-1.6 1 0.1 1 0.2 0 5.8-3.2 17.3-3.1 11.6-6.4 20.6-3.3 9-4.3 10.1-2.9 1.6-9.9 1.6-0.7 0-0.8-0.2-2.3-2-8.3-20.2-6.1-18.2-6.1-25zm49.1 23.9q0-4.3 1-8 1-3.7 1.9-5.2 0.9-1.6 1.4-1.9 0.5-0.3 4.3-0.3h1.2q0-3.3 1.3-5.8 1.3-2.5 3.4-3.7 3.9-2.2 7.3-2.2 0.1 0 0.1 0 18.7 0 18.7 23.5 0 7.3-2.5 13-1.4 3.3-3.7 5.6-2.3 2.3-6.1 3.8-3.8 1.4-8.7 1.4-10 0-14.8-5.7-4.8-5.8-4.8-14.5zm8.6-0.4q0 5.7 3.1 9.7 3.2 3.9 8 3.9 12.2 0 12.2-17.4 0-15.7-9.4-15.7-2.6 0-4.1 1.5-1.4 1.5-1.4 3.9 0 2.4 1.5 5.6 1.5 3.3 3 5.1l1.5 1.9q0 0.9-2.5 1.6-2.5 0.7-4 0.7-0.3 0-1.3-1.3-1.1-1.3-2.4-3.9-1.4-2.7-2-5.7-1.1 1.1-1.6 4.2-0.6 3-0.6 5.9zm48.3-21.7q-0.8-2.5-0.8-3.1 0-0.5 0.1-0.7 0.1-0.1 3.4-0.4 3.2-0.2 6.7-0.2 3.5 0 3.9 0.3 11.9 26.7 12.1 27.2 0.3 0.6 0.4 0.6l0.2-0.5v-1.9q0-5.7-0.3-14.2-0.4-8.6-0.8-10.7 0.9-0.8 3.5-1.5 2.5-0.6 4.6-0.6 2 0 2 0.3 0 1.3-0.5 3.2-0.4 1.8-0.4 1.9-0.5 3-0.5 9.4 0 1.6 0 3 0 4.1 0 6.2 0.1 2.9 0.1 5.5 0 2.6 0.1 5.1 0.1 2.5 0.1 4.6 0.1 4.4 0.1 6.2l0.1 0.9q0 0.2-0.9 0.6-2.6 1-6.8 1-0.2 0-0.3 0l-2.5-0.2q-2.7-7.6-7.9-19.2-5.1-11.6-5.7-12.5-0.6-0.9-0.8-0.9l-0.2 0.5q-0.2 1.8-0.2 8.1 0 6.2 0.3 13.5 0.3 7.4 0.7 9.2-1.8 1.6-6.6 1.6-1.3 0-2.4-0.3v-2.1q0-10.2 0.7-29.8l0.2-6.5q-0.9-1.2-1.7-3.6zm50.5 34.8q0-0.4-0.1-0.7 0-6 0.3-7.3 0.2-0.6 2.4-1.4 2.1-0.9 4.1-0.9 0 7.9 1.7 9.6 0.7 0.7 2.6 0.7 4.3 0 7.5-2.4 3.2-2.5 3.2-5.8 0-2.2-2.1-3.9-2.1-1.7-5.1-2.9-3-1.3-6-2.6-2.9-1.4-5-3.8-2.1-2.4-2.1-5.7 0-5 5.9-9 5.9-4.1 17.1-4.1 2.6 0 2.9 0.4 0.1 0.2 0.1 0.9 0 0.8-0.5 3-0.4 2.2-1.2 3.1-1.1-0.2-2.5-0.2 0 0-0.1 0-1.4 0-3.2 0.3-2 0.2-4.1 0.8-2.1 0.6-3.5 1.8-1.3 1.2-1.3 2.9 0 1.8 2 3.1 2.1 1.3 5 2.4 2.8 1.1 5.8 2.5 2.9 1.4 5 4.1 2 2.8 2 6.6 0 6.8-6.5 11.5-6.5 4.8-16.4 4.8-4.9 0-7.3-0.6-0.6-0.6-0.6-7.2zm46.2-20.4q0-0.2 3.3-0.2 0.1-4.8 0.1-11v-1.4q-1.7-3.2-1.7-6.4 0-0.2 0-0.3 0.4-0.1 0.8-0.1 0.3 0 1.5 0 1.2 0 3.3 0.5 2.2 0.4 3.4 0.9 1.3 0.6 1.3 0.9-0.5 3.3-0.5 15.3v1.4l9-0.1q4.9 0 5 0.1 0-8.8 0.2-12.8 0.3-4 0.3-4.2 0-0.1 1-0.6 1-0.6 2.7-1.1 1.7-0.5 3-0.5 1.2 0 1.2 0.3-0.7 9.7-0.7 20.6 0 0.2 0 0.5 0 11.2 0.7 16.6 0.6 5.5 2.9 7.7 0 0.2-0.6 0.7-0.7 0.5-3 1.3-2.4 0.7-4.5 0.7l-0.8-0.1q-1.3-1.3-1.8-5.3-0.5-4-0.6-16.8-1.1-0.1-7.3-0.1-6.1 0-6.7 0.2-0.1 1.9-0.1 8.3 0 6.4 0.5 10.8 0 0.7-2.1 1.2-2.2 0.5-4 0.5-1.8 0-2.2-0.4-0.4-0.3-0.4-12.3v-8q-0.9-0.8-2-3-1.2-2.3-1.2-3.8zm25.5-0.4q0 0 0 0 0 0 0 0zm26.4 28q-0.2 0-0.2-3 0-3 0.4-3.6 0.9-0.4 2.7-0.4-0.2-2.3-0.2-16.3 0-14 0.4-16h-0.2q-1.8 0-3 0.4-0.1 0-0.1-3.1 0-3 0.4-3.4 0.4-0.4 5.4-0.8 4.9-0.3 8.3-0.3 0.2 0 0.2 1.1l-0.2 4.9q0 0.3-0.2 0.3-2.3 0-2.4 0.1-0.2 0.1-0.2 2.8-0.3 10.6-0.3 18.4 0 7.8 0.5 11.3 0.9 0 2.8 0 0.3 0 0.3 3.3 0 0.1 0 0.2 0 3.1-0.4 3.1-9.8 0-14 1zm31.7-42.4q-0.9-2.5-0.9-3.1 0-0.6 0.2-0.7 0.1-0.2 4.2-0.4 4.2-0.2 8.4-0.2 4.2 0 7.5 0.4 3.3 0.5 6.9 1.7 3.6 1.1 5.6 3.7 2.1 2.6 2.1 6.6 0 3.9-2.8 7.4-2.8 3.4-7.7 5.8 0 1.1 4.3 9.6 4.2 8.6 6.7 11.1 0.1 0.1 0.1 0.2 0 0.2-1.1 0.6-3 1.5-6.4 1.5l-1.7-0.2q-1.5-1.5-5.1-9.8-3.7-8.3-4.1-10.2-0.8 0.5-6.4 1.4 0.2 13.5 0.7 15.7-0.7 0.8-3 1.2-2.2 0.4-3.7 0.4-1.4 0-2.5-0.3l0.4-38.8q-0.9-1.1-1.7-3.6zm9.8 18q7.9-0.8 11.6-3.8 3.7-3 3.7-5.9 0-2.9-2.9-4.3-2.8-1.4-7.3-1.4-2.3 0-4.7 0.4-0.4 2.9-0.4 15zm39.5-3.4q0 0 3.6-0.2l0.1-7.2q0-2.9-0.2-3.2-0.7-0.7-1.9-3.5-1.2-2.9-1.2-3.7 0.8-0.7 23.7-0.7 5.6 0 5.6 0.2 0 1.5-0.6 3.2-0.7 1.6-1.4 2.6-0.7 1-1 1-0.3-0.1-2.8-0.1-2.4 0-6.8 0.2-4.3 0.4-4.8 0.8-0.4 0.4-0.4 7.4l0.1 2.8q2.7-0.1 7.9-0.1 5.3 0 5.3 0.2 0 2.4-1.6 5.5-0.6 1.1-0.8 1-1.7 0-5.9 0.3-4.3 0.3-5 0.8 0 0 0 5.6 0 5.6 0.3 5.9 1.1 1.1 11.6 1.1 4.2 0 5.7-0.2 1.5-0.3 1.5-0.2 0 1.6-1.1 3.8-1.1 2.2-2.3 3.4-0.6 0.6-12.1 0.6-0.3 0-0.6 0.1-10.7 0-11.1-0.6-0.5-0.3-0.5-6.5 0-0.7 0-1.3 0-5.6 0.2-11.7-1.2-1.1-2.3-3.3-1.2-2.3-1.2-4zm71.8-14.7q-1.1-2.9-1.1-3.5 0-0.6 0-0.6 0.7-0.7 8-0.7 14 0 21.6 5.8 7.7 5.9 7.7 15.7 0 4.8-1.6 8.9-1.6 4.1-4.1 6.9-2.6 2.8-5.8 4.9-3.2 2.1-6.8 3.3-7 2.3-12.7 2.3-2.7 0-3.1-0.4-0.4-0.4-0.4-12l0.2-26.5q-0.7-1.2-1.9-4.1zm10.7 3q-0.5 0.4-0.5 15.8 0 15.4 0.5 15.9 0.1 0.2 1 0.2 0.8 0 2.6-0.5 1.7-0.5 4-1.8 2.3-1.3 4.2-3.3 2-1.9 3.3-5.2 1.4-3.4 1.4-7.1 0-3.8-1.4-6.5-1.3-2.6-3.1-4-1.8-1.4-4.2-2.2-3.6-1.4-6.9-1.4-0.9 0-0.9 0.1zm40.9 11.7q0 0 3.6-0.2l0.1-7.2q0-2.9-0.2-3.2-0.8-0.7-1.9-3.5-1.2-2.9-1.2-3.7 0.8-0.7 23.6-0.7 5.6 0 5.6 0.2 0 1.5-0.6 3.2-0.6 1.6-1.3 2.6-0.7 1-1 1-0.3-0.1-2.8-0.1-2.5 0-6.8 0.2-4.4 0.4-4.8 0.8-0.4 0.4-0.4 7.4l0.1 2.8q2.6-0.1 7.9-0.1 5.3 0 5.3 0.2 0 2.4-1.7 5.5-0.5 1.1-0.7 1-1.8 0-6 0.3-4.2 0.3-4.9 0.8-0.1 0-0.1 5.6 0 5.6 0.4 5.9 1.1 1.1 11.5 1.1 4.3 0 5.8-0.2 1.4-0.3 1.4-0.2 0 1.6-1.1 3.8-1 2.2-2.2 3.4-0.7 0.6-12.1 0.6-0.3 0-0.6 0.1-10.8 0-11.2-0.6-0.4-0.3-0.4-6.5 0-0.7 0-1.3 0-5.6 0.1-11.7-1.2-1.1-2.3-3.3-1.1-2.3-1.1-4zm43.7-16q0-0.1 1-0.5 2.8-1.3 5.1-1.3 2.3 0 2.3 0.2 0.3 3.3 4 17.4 3.7 14.1 6.4 19.5 0.6 1.3 1.2 0.7 0.3-0.2 0.3-0.5 1.8-3.4 5.2-14 3.4-10.5 3.4-17.3 0-0.8-1.5-1.7-1.5-1-2.7-1.1-0.1-0.1-0.1-0.7 0-0.6 0.4-2 0.3-1.3 0.6-1.5 6.1-1.6 12.4-1.6 1 0.1 0.9 0.2 0 5.8-3.1 17.3-3.1 11.6-6.4 20.6-3.3 9-4.3 10.1-3 1.6-10 1.6-0.6 0-0.8-0.2-2.2-2-8.3-20.2-6-18.2-6-25zm76.6 36.6q0-0.4-0.1-0.7 0-6 0.3-7.3 0.2-0.6 2.4-1.4 2.1-0.9 4.1-0.9 0 7.9 1.7 9.6 0.7 0.7 2.6 0.7 4.3 0 7.5-2.4 3.2-2.5 3.2-5.8 0-2.2-2.1-3.9-2.1-1.7-5.1-2.9-3-1.3-5.9-2.6-3-1.4-5.1-3.8-2.1-2.4-2.1-5.7 0-5 5.9-9 5.9-4.1 17.1-4.1 2.6 0 2.9 0.4 0.1 0.2 0.1 0.9 0 0.8-0.5 3-0.4 2.2-1.2 3.1-1.1-0.2-2.4-0.2-0.1 0-0.2 0-1.4 0-3.2 0.3-2 0.2-4.1 0.8-2.1 0.6-3.5 1.8-1.3 1.2-1.3 2.9 0 1.8 2 3.1 2.1 1.3 5 2.4 2.9 1.1 5.8 2.5 2.9 1.4 5 4.1 2 2.8 2 6.6 0 6.8-6.5 11.5-6.5 4.8-16.4 4.8-4.9 0-7.3-0.6-0.6-0.6-0.6-7.2zm46.2-20.4q0-0.2 3.3-0.2 0.1-4.8 0.1-11v-1.4q-1.7-3.2-1.7-6.4 0-0.2 0-0.3 0.4-0.1 0.8-0.1 0.3 0 1.5 0 1.2 0 3.3 0.5 2.2 0.4 3.4 0.9 1.3 0.6 1.3 0.9-0.5 3.3-0.5 15.3v1.4l9-0.1q4.9 0 5 0.1 0-8.8 0.2-12.8 0.3-4 0.3-4.2 0-0.1 1-0.6 1-0.6 2.7-1.1 1.7-0.5 3-0.5 1.2 0 1.2 0.3-0.7 9.7-0.7 20.6 0 0.2 0 0.5 0 11.2 0.7 16.6 0.7 5.5 2.9 7.7 0 0.2-0.6 0.7-0.6 0.5-3 1.3-2.4 0.7-4.5 0.7l-0.8-0.1q-1.3-1.3-1.8-5.3-0.5-4-0.6-16.8-1.1-0.1-7.3-0.1-6.1 0-6.7 0.2-0.1 1.9-0.1 8.3 0 6.4 0.5 10.8 0 0.7-2.1 1.2-2.2 0.5-4 0.5-1.8 0-2.2-0.4-0.4-0.3-0.4-12.3v-8q-0.9-0.8-2-3-1.2-2.3-1.2-3.8zm25.5-0.4q0 0 0 0 0 0 0 0zm25.2 8.1q0-4.3 1-8 1-3.7 1.9-5.2 0.8-1.6 1.4-1.9 0.5-0.3 4.2-0.3h1.3q0-3.3 1.3-5.8 1.3-2.5 3.4-3.7 3.9-2.2 7.3-2.2 0.1 0 0.1 0 18.7 0 18.7 23.5 0 7.3-2.5 13-1.4 3.3-3.7 5.6-2.3 2.3-6.1 3.8-3.8 1.4-8.7 1.4-10 0-14.8-5.7-4.8-5.8-4.8-14.5zm8.5-0.4q0 5.7 3.2 9.7 3.1 3.9 8 3.9 12.2 0 12.2-17.4 0-15.7-9.4-15.7-2.7 0-4.1 1.5-1.5 1.5-1.5 3.9 0 2.4 1.6 5.6 1.5 3.3 3 5.1l1.5 1.9q0 0.9-2.5 1.6-2.5 0.7-4 0.7-0.3 0-1.4-1.3-1-1.3-2.4-3.9-1.3-2.7-2-5.7-1 1.1-1.6 4.2-0.6 3-0.6 5.9zm48.4-22.1q-0.9-2.5-0.9-3.1 0-0.6 0.2-0.7 0.2-0.2 4.3-0.4 4.1-0.2 8.3-0.2 4.3 0 7.5 0.4 3.3 0.5 6.8 1.7 3.5 1.3 5.5 3.9 2.1 2.6 2.1 6.6 0 4.1-2.5 7.4-2.5 3.3-5.9 5.1-7.3 3.7-13.1 4.4l-2.5 0.3q0.3 13.7 0.7 15.7-0.7 0.8-2.9 1.2-2.2 0.4-3.8 0.4-1.5 0-2.4-0.3l0.4-38.8q-1-1.1-1.8-3.6zm9.8 18q15.1-1.4 15.1-9.6 0-2.8-2.8-4.3-2.8-1.5-7.1-1.5l-4.8 0.4q-0.4 2.5-0.4 15z"/>
			</g>
		</g>
	</g>
	<g id="tagline-7608e0ce-c04e-4fb1-82cf-d79ebeb39df0-logo">
		<g>
			<g id="tagline-7608e0ce-c04e-4fb1-82cf-d79ebeb39df0-logo-path-0">
				<path fill-rule="evenodd" class="s1" d="m17.9 505.1q0-2.1 0.9-7.4 1-5.2 1.3-6.6l-2-3.9q4.6-2.6 7.9-2.7 1.6 0 2.4 1.2 3-1.1 5.6-1.1 4.7 0 7.4 3.1 2.6 3 2.6 7.7 0 6-4.5 11.1-2.1 2.4-5.6 3.9-3.5 1.5-7.6 1.5-4 0-6.2-1.7-2.2-1.8-2.2-5.1zm7.7 1.3q0.8 0.2 1.7 0.2 4 0 6.2-2.9 2.2-2.8 2.2-7 0-3.4-1.5-5.4-1.5-2-4.4-2-0.4 0-1.4 0.1-0.3 1.9-1.4 8.3-1.1 6.5-1.4 8.7zm29.9 4.2q-1-1.4-1-4.1 0-2.7 2.3-15.4l-1.9-3.9q4.1-2.7 7.5-2.7 2.1 0 2.7 2.1 4.1-0.1 10.2-1.9 0.3 1.2 0.4 2.4 0 2.9-2 4.4-1.9 1.5-5 1.5-2.1 0-4.1-0.8-0.3 1.6-1 5.3 1.3 0.3 2.3 0.3 1.5-0.3 3.2-0.9 0.2 0.7 0.2 2.1 0 1.4-1.1 2.2-1.1 0.8-2.5 0.8-1.4 0-2.9-0.3-0.4 2.3-0.4 4.3h5.9q2.8-0.4 5.6-1.4 0.2 0.7 0.2 1.8 0 2.2-1.3 3.8-1.2 1.7-3.5 1.7-1.1 0-3.4-0.4-2.2-0.5-3.3-0.6-1.7 1.1-3.9 1.1-2.1 0-3.2-1.4zm27.7-24.1q2.5-1.9 5.7-2 2.9 0 4.3 2.3 1.5 2.3 1.9 5.5 0.4 2.9 0.4 6.8l-0.1 6.1h0.9q2.1-4.3 3.8-9.2 1.7-5 1.7-7.6 0-1-0.4-1.9 2.8-1.9 5.1-2 3.7 0 3.7 4.2 0 2-1.2 5.2-1.1 3.1-3.3 7.8-2.1 4.6-2.3 5l0.5 2q-1.7 1.4-4.3 2.3-2.6 0.9-5.8 0.9-3.2 0-4.7-1-1.5-1-1.5-3.4v-6.7q0-8.4-2-11.8-1-1.6-2.4-2.5zm57.4 24.1q-1.1-1.4-1.1-4.1 0-2.7 2.4-15.4l-2-3.9q4.1-2.7 7.5-2.7 2.2 0 2.7 2.1 4.1-0.1 10.3-1.9 0.3 1.2 0.3 2.4 0 2.9-2 4.4-1.9 1.5-5 1.5-2.1 0-4.1-0.8-0.3 1.6-1 5.3 1.4 0.3 2.3 0.3 1.5-0.3 3.3-0.9 0.2 0.7 0.2 2.1 0 1.4-1.2 2.2-1.1 0.8-2.5 0.8-1.4 0-2.9-0.3-0.4 2.3-0.4 4.3h6q2.7-0.4 5.5-1.4 0.2 0.7 0.3 1.8 0 2.2-1.3 3.8-1.3 1.7-3.5 1.7-1.2 0-3.4-0.4-2.2-0.5-3.3-0.6-1.8 1.1-3.9 1.1-2.2 0-3.2-1.4zm28-2.1q0-4.3 8.8-10.7l-3.3-6.1q-1.9-3.7-4.4-4.5 2.4-2.6 5.9-2.7 2.4 0 3.8 1.3 1.4 1.3 3.5 5.1l1.5 2.9q2.5-2.9 2.5-5.4 0-1-0.3-1.9 2.8-1.9 5.4-2 1.9 0 2.9 1 0.9 1 0.9 2.5 0 4.6-8.7 10.9l3.2 6q1.9 3.6 4.4 4.4-2.5 2.6-5.8 2.6-2.5 0-3.9-1.2-1.4-1.3-3.5-5.2l-1.5-2.8q-2.5 3-2.5 5.3 0 1.2 0.3 2-2.7 1.9-5.4 1.9-1.9 0-2.8-1-1-0.9-1-2.4zm38.5 2.1q-1-1.4-1-4.1 0-2.7 2.3-15.4l-1.9-3.9q4.1-2.7 7.5-2.7 0.9 0 2.1 0.4 1.1 0.3 1.6 0.8 2.7-1.1 5-1.1 3.4 0 5.4 2.4 2 2.4 2 5.8 0 4-3 7.3-1.4 1.5-3.8 2.5-2.4 0.9-4.9 0.9-2.5 0-4.2-0.5-0.2 1.3-0.2 2 0 3.6 1.1 5.3-2.2 1.7-4.6 1.7-2.3 0-3.4-1.4zm7.8-11.7q0.5 0.1 1.1 0.1 2.3 0 4.1-1.7 1.8-1.6 1.8-4 0-1.7-0.9-2.9-1-1.1-2.7-1.1-0.8 0-1.7 0.3-0.8 5-1.7 9.3zm26.7 11.7q-1-1.4-1-4.1 0-2.7 2.3-15.4l-2-3.9q4.2-2.7 7.6-2.7 2.1 0 2.6 2.1 4.2-0.1 10.3-1.9 0.3 1.2 0.3 2.4 0 2.9-1.9 4.4-2 1.5-5 1.5-2.1 0-4.1-0.8-0.3 1.6-1.1 5.3 1.4 0.3 2.4 0.3 1.5-0.3 3.2-0.9 0.2 0.7 0.2 2.1 0 1.4-1.1 2.2-1.2 0.8-2.6 0.8-1.4 0-2.8-0.3-0.4 2.3-0.4 4.3h5.9q2.8-0.4 5.6-1.4 0.2 0.7 0.2 1.8 0 2.2-1.3 3.8-1.2 1.7-3.5 1.7-1.1 0-3.4-0.4-2.2-0.5-3.3-0.6-1.7 1.1-3.9 1.1-2.2 0-3.2-1.4zm30.9 0q-1-1.4-1-4.1 0-2.7 2.3-15.4l-1.9-3.9q4-2.6 7.5-2.7 2.6 0 4 1.2 2.8-1.1 5-1.2 3.3 0 5.3 2.3 2 2.3 2 5.4 0 2.4-1.2 4.6-1.3 2.2-3.6 3.6 1.3 3.6 2.8 6.1 1.6 2.6 3.1 3.4-0.8 0.8-2.4 1.4-1.5 0.6-2.8 0.6-2.5 0-4-1.2-1.5-1.3-2.7-4.8l-1.3-3.6q-1.9 0-3.8-0.6-0.4 2.3-0.4 3.3 0 3.6 1.1 5.3-2.2 1.7-4.6 1.7-2.4 0-3.4-1.4zm8.1-13q0.2 0.1 0.8 0.1 2.9 0 4.5-1.5 1.7-1.5 1.7-3.2 0-1.7-1-2.8-0.9-1-2.7-1-0.9 0-1.9 0.3-1.2 7-1.4 8.1zm24.3-6.7q0-3 1.5-4.5 1.5-1.5 3.7-1.5 2.1 0 5.8 0.8 3.7 0.7 5.5 0.7 3.1-0.6 5.9-1.4 0.3 0.9 0.3 2.4 0 2.9-1.7 4.4-1.7 1.5-4.3 1.5-0.6 0-1.8-0.1-1.9 10.5-1.9 11.8 0 3.6 1 5.3-2.1 1.7-4.5 1.7-2.4 0-3.4-1.4-1-1.4-1-4.1 0-2.7 2.1-14.5-4.1 0.6-6.9 1.2-0.3-0.9-0.3-2.3zm33.1 19.5q-2.3-1.5-2.3-4.1 0-2.5 1.6-4.6 0.7 1.7 2.9 3 2.2 1.3 4.3 1.3 3.9 0 5-2.5-6.1-0.8-9.3-3.4-3.2-2.5-3.2-6.2 0-2.5 1.3-4.4 1.4-1.9 3.4-2.9 4-2.1 7.8-2.1 4.8 0 7.3 1.2 2.4 1.1 2.4 3.5 0 2.5-1.5 3.7-1.5 1.2-3.4 1.2-1.9 0-3.4-0.9-1.5-1-2.1-2.6-1.4 0-2.6 0.9-1.2 0.9-1.5 2.3 7.2 1.8 10.3 4.1 3.2 2.4 3.2 6 0 3.6-3.3 5.8-3.3 2.2-8.9 2.2-5.6 0-8-1.5zm48.9-2.4q0-2 1.2-4.9 1.2-3 3.3-6.9 2-3.9 2.5-5.1-0.4-2-0.9-3.9 1.9-1.3 3.7-2 1.8-0.7 3.8-0.7 2.1 0 2.9 1 2.1-1 3.4-1 1.4 0 2 0.5 0.7 0.4 1 1.3 0.5 1.4 0.5 3.6l-0.3 8.7q0 4.5 0.7 7.6 0.8 3 2.8 4.2-2.5 1.6-5.1 1.6-4.5 0-5.6-7.4h-7.4q-0.7 2.4-0.7 3.6 0 1.3 0.2 2-2.7 1.8-4.8 1.8-3.2 0-3.2-4zm10-7.2h5.7q0-4 0.4-10.1h-1.2q-3.3 6.4-4.9 10.1zm24.2-9.9q0-3 1.5-4.5 1.5-1.5 3.6-1.5 2.2 0 5.9 0.8 3.7 0.7 5.5 0.7 3.1-0.6 5.9-1.4 0.3 0.9 0.3 2.4 0 2.9-1.7 4.4-1.7 1.5-4.3 1.5-0.7 0-1.8-0.1-2 10.5-2 11.8 0 3.6 1.1 5.3-2.2 1.7-4.5 1.7-2.4 0-3.4-1.4-1.1-1.4-1.1-4.1 0-2.7 2.2-14.5-4.2 0.6-7 1.2-0.2-0.9-0.2-2.3zm48.4-4.6q2.8-1.8 4.6-1.8 1.8 0 3 0.6 1.1 0.6 1.9 1.4 0.7 0.9 1.3 2.3 0.6 1.5 0.9 2.7 0.3 1.2 0.5 3.1 0.2 1.9 0.2 3.1 0.1 1.1 0.1 3 0.1 2 0.1 2.7h0.5q1.5-3.4 2.7-7.8 1.1-4.4 1.1-6.9 0-1.3-0.5-2.4 2.7-1.8 4.8-1.8 4.1 0 4.1 4.3 0 2.1-1.7 7.2-1.6 5.1-3.9 9.8-2.8 6.2-5.9 8.9-3 2.8-7.8 2.8-2.2 0-3.9-0.9-2-1-2-3.3 0-2.3 1.8-4.8 0.8 1.2 2.1 1.8 1.4 0.6 3 0.6 1.6 0 3.1-0.8 1.4-0.9 2-2.6-1.9 0.4-3.5 0.4-3.5 0-3.8-3.5 0-0.7-0.1-3-0.1-2.4-0.2-3.6-0.1-1.2-0.4-3.3-0.3-2.1-0.8-3.4-1.2-3.4-3.3-4.8zm34.1 13.5q0-6.9 3.9-11.1 3.8-4.2 10.6-4.2 2.1 0 3.1 0.9 0.9 0.9 0.9 2.7 0 0.2-0.1 0.9 1.4-1 3-1 2.2 0 3.8 1.9 1.6 2 1.6 5.8 0 3.8-1.2 6.9-1.2 3.1-3.2 5.1-2 2-4.5 3.1-2.5 1.1-5.3 1.1-5.8 0-9.2-3.3-3.4-3.4-3.4-8.8zm8-0.2q0 3.1 1.3 5 1.3 2 3.6 2 1.8 0 3.3-1.4 1.5-1.4 2-3.6-2.3-2.9-2.3-6.2 0-3.2 1.5-5.2-0.7-0.2-1.4-0.2-2.5 0-4.4 1.6-3.6 2.9-3.6 8zm30 6.1q0-2.1 0.6-5.5 0.6-3.5 1-5.8 0.5-2.4 0.6-3.3l-1.9-3.9q2.3-1.3 4-2 1.7-0.7 3.4-0.7 1.7 0 2.3 0.9 0.6 0.9 0.6 2.2 0 1.2-1.2 7.9-1.2 6.8-1.2 7.9 0 2.9 1.9 2.9 1.5 0 3.4-1.9 1.8-1.9 3-5.1-0.8-2.2-0.8-4.6 0-4.2 2.1-7.2 2.1-3 5.9-3 2.2 0 3.5 0.7-0.4 2-1.3 7.2-2.1 11-2.1 12.6 0 3.6 1.1 5.3-2.2 1.7-4.3 1.7-2.1 0-3.4-1.1-1.2-1.1-1.2-3.3 0-0.7 0-1l-0.4-0.1q-3.6 5.4-9.7 5.4-5.9 0-5.9-6.2zm39.4 4.9q-1-1.4-1-4.1 0-2.7 2.3-15.4l-2-3.9q4.1-2.6 7.5-2.7 2.7 0 4.1 1.2 2.8-1.1 4.9-1.2 3.4 0 5.4 2.3 1.9 2.3 1.9 5.4 0 2.4-1.2 4.6-1.2 2.2-3.5 3.6 1.2 3.6 2.8 6.1 1.5 2.6 3.1 3.4-0.8 0.8-2.4 1.4-1.6 0.6-2.9 0.6-2.4 0-3.9-1.2-1.5-1.3-2.7-4.8l-1.3-3.6q-1.9 0-3.8-0.6-0.5 2.3-0.5 3.3 0 3.6 1.2 5.3-2.2 1.7-4.6 1.7-2.4 0-3.4-1.4zm8-13q0.3 0.1 0.9 0.1 2.9 0 4.5-1.5 1.6-1.5 1.6-3.2 0-1.7-0.9-2.8-0.9-1-2.7-1-1 0-1.9 0.3-1.2 7-1.5 8.1zm46.7 12.8q-2.3-1.5-2.3-4.1 0-2.5 1.6-4.6 0.7 1.7 2.9 3 2.2 1.3 4.3 1.3 3.9 0 5-2.5-6.1-0.8-9.3-3.4-3.2-2.5-3.2-6.2 0-2.5 1.4-4.4 1.3-1.9 3.3-2.9 4-2.1 7.8-2.1 4.9 0 7.3 1.2 2.4 1.1 2.4 3.5 0 2.5-1.5 3.7-1.5 1.2-3.4 1.2-1.9 0-3.4-0.9-1.5-1-2.1-2.6-1.3 0-2.6 0.9-1.2 0.9-1.5 2.3 7.2 1.8 10.3 4.1 3.2 2.4 3.2 6 0 3.6-3.3 5.8-3.3 2.2-8.9 2.2-5.6 0-8-1.5zm33.1 0.2q-1-1.4-1-4.1 0-2.7 2.3-15.4l-2-3.9q4.1-2.7 7.5-2.7 2.2 0 2.7 2.1 4.1-0.1 10.3-1.9 0.3 1.2 0.3 2.4 0 2.9-2 4.4-1.9 1.5-5 1.5-2.1 0-4.1-0.8-0.3 1.6-1 5.3 1.4 0.3 2.3 0.3 1.5-0.3 3.3-0.9 0.2 0.7 0.2 2.1 0 1.4-1.2 2.2-1.1 0.8-2.5 0.8-1.4 0-2.9-0.3-0.4 2.3-0.4 4.3h5.9q2.8-0.4 5.6-1.4 0.2 0.7 0.2 1.8 0 2.2-1.2 3.8-1.3 1.7-3.5 1.7-1.2 0-3.4-0.4-2.2-0.5-3.3-0.6-1.8 1.1-3.9 1.1-2.2 0-3.2-1.4zm30.9 0q-1-1.4-1-4.1 0-2.7 2.2-15.4l-1.9-3.9q4.1-2.6 7.5-2.7 2.7 0 4.1 1.2 2.7-1.1 4.9-1.2 3.4 0 5.4 2.3 1.9 2.3 1.9 5.4 0 2.4-1.2 4.6-1.2 2.2-3.5 3.6 1.2 3.6 2.8 6.1 1.5 2.6 3 3.4-0.7 0.8-2.3 1.4-1.6 0.6-2.9 0.6-2.5 0-4-1.2-1.5-1.3-2.7-4.8l-1.2-3.6q-1.9 0-3.9-0.6-0.4 2.3-0.4 3.3 0 3.6 1.1 5.3-2.2 1.7-4.5 1.7-2.4 0-3.4-1.4zm8-13q0.3 0.1 0.8 0.1 3 0 4.6-1.5 1.6-1.5 1.6-3.2 0-1.7-0.9-2.8-1-1-2.7-1-1 0-1.9 0.3-1.2 7-1.5 8.1zm23.8-11.1q2.5-1.9 5.7-2 2.9 0 4.4 2.3 1.4 2.3 1.8 5.5 0.4 2.9 0.4 6.8l-0.1 6.1h0.9q2.1-4.3 3.8-9.2 1.7-5 1.7-7.6 0-1-0.4-1.9 2.8-1.9 5.1-2 3.7 0 3.7 4.2 0 2-1.1 5.2-1.2 3.1-3.4 7.8-2.1 4.6-2.3 5l0.5 2q-1.6 1.4-4.3 2.3-2.6 0.9-5.8 0.9-3.2 0-4.7-1-1.5-1-1.5-3.4v-6.7q0-8.4-2-11.8-1-1.6-2.4-2.5zm38.3 24.1q-1-1.4-1-4.1 0-2.7 2.3-15.4l-1.9-3.9q4.1-2.7 7.5-2.7 2.8 0 2.8 3.5 0 1.1-1.4 8.4-1.4 7.2-1.4 8.6 0 3.6 1.1 5.3-2.2 1.7-4.6 1.7-2.4 0-3.4-1.4zm20.2-10.8q0-2.5 1.1-5.2 1.1-2.6 3.1-4.9 2-2.3 5.2-3.7 3.3-1.5 6.7-1.5 3.5 0 5.4 1.3 2 1.3 2 3.6 0 2.3-1.5 3.5-1.5 1.2-3.4 1.2-1.9 0-3.4-0.8-1.5-0.8-2.5-2.3-1.9 0.9-3.3 3.7-1.5 2.8-1.5 5.6 0 2.8 1 4.4 0.9 1.6 2.5 1.6 1.7 0 3-1.7 1.3-1.7 1.3-4.1 3.7 0 5.3 0.5 1.6 0.6 1.6 2.6 0 3-3.3 5.7-3.3 2.6-8.3 2.6-4.9 0-8-3-3-3.1-3-9.1zm35.3 10.8q-1-1.4-1-4.1 0-2.7 2.3-15.4l-1.9-3.9q4.1-2.7 7.5-2.7 2.2 0 2.7 2.1 4.1-0.1 10.2-1.9 0.3 1.2 0.4 2.4 0 2.9-2 4.4-1.9 1.5-5 1.5-2.1 0-4.1-0.8-0.3 1.6-1 5.3 1.3 0.3 2.3 0.3 1.5-0.3 3.2-0.9 0.2 0.7 0.2 2.1 0 1.4-1.1 2.2-1.1 0.8-2.5 0.8-1.4 0-2.9-0.3-0.4 2.3-0.4 4.3h5.9q2.8-0.4 5.6-1.4 0.2 0.7 0.2 1.8 0 2.2-1.2 3.8-1.3 1.7-3.5 1.7-1.2 0-3.4-0.4-2.3-0.5-3.4-0.6-1.7 1.1-3.9 1.1-2.1 0-3.2-1.4z"/>
			</g>
		</g>
	</g>
</svg>